REM DIRINDEX 1\4,1\2\5,1\2\6,1\3\7,1\3\8
REM DIRNAME cjc124,folder01,folder02,folder03,folder04,folder05,folder06,folder07
TITLE ""
FILE "106_Day53_Check3_Sentences.mp3" MP3
  TRACK 01 AUDIO
    TITLE "0:"
    INDEX 01 00:00:00
  TRACK 02 AUDIO
    TITLE "4:cjc124_3468"
    INDEX 01 00:00:25
  TRACK 03 AUDIO
    TITLE "0:"
    INDEX 01 00:02:00
  TRACK 04 AUDIO
    TITLE "7:cjc124_3469"
    INDEX 01 00:02:49
  TRACK 05 AUDIO
    TITLE "0:"
    INDEX 01 00:06:39
  TRACK 06 AUDIO
    TITLE "8:cjc124_3470"
    INDEX 01 00:06:55
  TRACK 07 AUDIO
    TITLE "0:"
    INDEX 01 00:10:68
  TRACK 08 AUDIO
    TITLE "7:cjc124_3471"
    INDEX 01 00:11:29
  TRACK 09 AUDIO
    TITLE "0:"
    INDEX 01 00:14:39
  TRACK 10 AUDIO
    TITLE "8:cjc124_3472"
    INDEX 01 00:14:56
  TRACK 11 AUDIO
    TITLE "0:"
    INDEX 01 00:17:39
  TRACK 12 AUDIO
    TITLE "7:cjc124_3473"
    INDEX 01 00:17:74
  TRACK 13 AUDIO
    TITLE "0:"
    INDEX 01 00:21:57
  TRACK 14 AUDIO
    TITLE "8:cjc124_3474"
    INDEX 01 00:21:72
  TRACK 15 AUDIO
    TITLE "0:"
    INDEX 01 00:24:72
  TRACK 16 AUDIO
    TITLE "7:cjc124_3475"
    INDEX 01 00:25:35
  TRACK 17 AUDIO
    TITLE "0:"
    INDEX 01 00:29:36
  TRACK 18 AUDIO
    TITLE "8:cjc124_3476"
    INDEX 01 00:29:54
  TRACK 19 AUDIO
    TITLE "0:"
    INDEX 01 00:32:45
  TRACK 20 AUDIO
    TITLE "7:cjc124_3477"
    INDEX 01 00:33:07
  TRACK 21 AUDIO
    TITLE "0:"
    INDEX 01 00:36:03
  TRACK 22 AUDIO
    TITLE "8:cjc124_3478"
    INDEX 01 00:36:21
  TRACK 23 AUDIO
    TITLE "0:"
    INDEX 01 00:39:33
  TRACK 24 AUDIO
    TITLE "7:cjc124_3479"
    INDEX 01 00:39:72
  TRACK 25 AUDIO
    TITLE "0:"
    INDEX 01 00:43:11
  TRACK 26 AUDIO
    TITLE "8:cjc124_3480"
    INDEX 01 00:43:31
  TRACK 27 AUDIO
    TITLE "0:"
    INDEX 01 00:45:57
  TRACK 28 AUDIO
    TITLE "7:cjc124_3481"
    INDEX 01 00:46:19
  TRACK 29 AUDIO
    TITLE "0:"
    INDEX 01 00:49:45
  TRACK 30 AUDIO
    TITLE "8:cjc124_3482"
    INDEX 01 00:49:67
  TRACK 31 AUDIO
    TITLE "0:"
    INDEX 01 00:53:29
  TRACK 32 AUDIO
    TITLE "7:cjc124_3483"
    INDEX 01 00:53:70
  TRACK 33 AUDIO
    TITLE "0:"
    INDEX 01 00:56:69
  TRACK 34 AUDIO
    TITLE "8:cjc124_3484"
    INDEX 01 00:57:09
  TRACK 35 AUDIO
    TITLE "0:"
    INDEX 01 01:00:27
  TRACK 36 AUDIO
    TITLE "7:cjc124_3485"
    INDEX 01 01:00:66
  TRACK 37 AUDIO
    TITLE "0:"
    INDEX 01 01:04:01
  TRACK 38 AUDIO
    TITLE "8:cjc124_3486"
    INDEX 01 01:04:21
  TRACK 39 AUDIO
    TITLE "0:"
    INDEX 01 01:08:17
  TRACK 40 AUDIO
    TITLE "7:cjc124_3487"
    INDEX 01 01:08:56
  TRACK 41 AUDIO
    TITLE "0:"
    INDEX 01 01:13:24
  TRACK 42 AUDIO
    TITLE "8:cjc124_3488"
    INDEX 01 01:13:40
  TRACK 43 AUDIO
    TITLE "0:"
    INDEX 01 01:17:06
  TRACK 44 AUDIO
    TITLE "7:cjc124_3489"
    INDEX 01 01:17:43
  TRACK 45 AUDIO
    TITLE "0:"
    INDEX 01 01:20:04
  TRACK 46 AUDIO
    TITLE "8:cjc124_3490"
    INDEX 01 01:20:24
  TRACK 47 AUDIO
    TITLE "0:"
    INDEX 01 01:22:72
  TRACK 48 AUDIO
    TITLE "7:cjc124_3491"
    INDEX 01 01:23:46
  TRACK 49 AUDIO
    TITLE "0:"
    INDEX 01 01:27:06
  TRACK 50 AUDIO
    TITLE "8:cjc124_3492"
    INDEX 01 01:27:24
  TRACK 51 AUDIO
    TITLE "0:"
    INDEX 01 01:30:48
  TRACK 52 AUDIO
    TITLE "7:cjc124_3493"
    INDEX 01 01:31:12
  TRACK 53 AUDIO
    TITLE "0:"
    INDEX 01 01:34:16
  TRACK 54 AUDIO
    TITLE "8:cjc124_3494"
    INDEX 01 01:34:36
  TRACK 55 AUDIO
    TITLE "0:"
    INDEX 01 01:37:48
  TRACK 56 AUDIO
    TITLE "7:cjc124_3495"
    INDEX 01 01:38:10
  TRACK 57 AUDIO
    TITLE "0:"
    INDEX 01 01:40:74
  TRACK 58 AUDIO
    TITLE "8:cjc124_3496"
    INDEX 01 01:41:16
  TRACK 59 AUDIO
    TITLE "0:"
    INDEX 01 01:45:32
  TRACK 60 AUDIO
    TITLE "7:cjc124_3497"
    INDEX 01 01:45:71
  TRACK 61 AUDIO
    TITLE "0:"
    INDEX 01 01:50:04
  TRACK 62 AUDIO
    TITLE "8:cjc124_3498"
    INDEX 01 01:50:23
  TRACK 63 AUDIO
    TITLE "0:"
    INDEX 01 01:53:63
  TRACK 64 AUDIO
    TITLE "7:cjc124_3499"
    INDEX 01 01:54:27
  TRACK 65 AUDIO
    TITLE "0:"
    INDEX 01 01:57:13
  TRACK 66 AUDIO
    TITLE "8:cjc124_3500"
    INDEX 01 01:57:31
  TRACK 67 AUDIO
    TITLE "0:"
    INDEX 01 01:59:12
